<?xml version="1.0" encoding="iso-8859-1"?>
<!-- Generator: Adobe Illustrator 18.1.1, SVG Export Plug-In . SVG Version: 6.00 Build 0)  -->
<svg version="1.1" id="Capa_1" xmlns="http://www.w3.org/2000/svg" xmlns:xlink="http://www.w3.org/1999/xlink" x="0px" y="0px"
	 viewBox="0 0 358.502 358.502" style="enable-background:new 0 0 358.502 358.502;" xml:space="preserve">
<g>
	<path d="M215.026,289.036c-17.434-4.396-15.066-19.398-12.035-28.08c61.247-11.209,107.814-64.968,107.814-129.403
		C310.805,59.015,251.79,0,179.251,0S47.697,59.015,47.697,131.554c0,63.901,45.799,117.297,106.294,129.111
		c3.078,8.633,5.697,23.926-11.933,28.372c-25.003,6.305-58.728,18.561-58.728,49.66c0,26.407,190.423,26.407,190.423,0
		C273.754,307.598,240.029,295.341,215.026,289.036z M64.699,131.554c0-63.164,51.388-114.552,114.552-114.552
		S293.803,68.39,293.803,131.554c0,63.164-51.388,114.552-114.552,114.552S64.699,194.718,64.699,131.554z M167.599,331.171
		c0,2.954-2.396,5.35-5.349,5.35c-2.954,0-5.35-2.396-5.35-5.35v-7.791c0-2.955,2.396-5.35,5.35-5.35
		c2.953,0,5.349,2.395,5.349,5.35V331.171z M184.599,331.171c0,2.954-2.395,5.35-5.349,5.35c-2.953,0-5.349-2.396-5.349-5.35v-7.791
		c0-2.955,2.396-5.35,5.349-5.35c2.954,0,5.349,2.395,5.349,5.35V331.171z M201.601,331.171c0,2.954-2.395,5.35-5.349,5.35
		c-2.953,0-5.349-2.396-5.349-5.35v-7.791c0-2.955,2.395-5.35,5.349-5.35c2.954,0,5.349,2.395,5.349,5.35V331.171z"/>
	<path d="M192.177,129.765c1.747,2.531,2.776,5.599,2.776,8.906c0,8.637-6.971,15.637-15.59,15.699
		c0.91,12.496,7.329,26.467,12.434,36.027c9.149,17.143,34.172,21.641,55.889,10.049c21.716-11.593,31.904-34.887,22.753-52.028
		C256.366,122.056,214.248,118.886,192.177,129.765z"/>
	<path d="M166.384,129.691c2.84-4.061,7.54-6.72,12.867-6.72c5.34,0,10.049,2.671,12.886,6.741
		c10.622-4.803,20.876-13.658,27.944-20.489c13.97-13.503,11.429-38.8-5.681-56.499c-17.107-17.701-42.302-21.103-56.273-7.6
		c-21.878,21.145-12.663,63.663,4.444,81.363C163.796,127.754,165.071,128.807,166.384,129.691z"/>
	<path d="M163.549,138.671c0-3.307,1.029-6.373,2.776-8.905c-22.071-10.88-64.188-7.71-78.262,18.652
		c-9.15,17.142,1.037,40.436,22.753,52.028c21.717,11.592,46.739,7.094,55.889-10.049c5.105-9.562,11.516-23.531,12.424-36.028
		C170.515,154.304,163.549,147.304,163.549,138.671z"/>
</g>
<g>
</g>
<g>
</g>
<g>
</g>
<g>
</g>
<g>
</g>
<g>
</g>
<g>
</g>
<g>
</g>
<g>
</g>
<g>
</g>
<g>
</g>
<g>
</g>
<g>
</g>
<g>
</g>
<g>
</g>
</svg>
