<?xml version="1.0" encoding="UTF-8" ?>
<!DOCTYPE svg PUBLIC "-//W3C//DTD SVG 1.1//EN" "http://www.w3.org/Graphics/SVG/1.1/DTD/svg11.dtd">
<svg width="300pt" height="300pt" viewBox="0 0 300 300" version="1.1" xmlns="http://www.w3.org/2000/svg">
<path fill="#fefefe" d=" M 0.00 0.00 L 300.00 0.00 L 300.00 300.00 L 0.00 300.00 L 0.00 0.00 Z" />
<path fill="#020202" d=" M 104.00 17.32 C 109.04 9.19 118.57 4.61 127.97 4.35 C 137.22 3.68 146.19 9.20 150.80 17.06 C 144.28 11.99 135.04 9.74 127.33 13.40 C 122.56 15.69 119.67 20.40 118.05 25.26 C 114.41 21.04 109.31 18.67 104.00 17.32 Z" />
<path fill="#020202" d=" M 149.45 7.08 C 154.31 7.88 159.43 9.37 162.71 13.31 C 165.29 15.94 166.32 19.55 167.69 22.86 C 171.22 21.65 175.39 21.03 178.55 23.50 C 184.50 28.03 187.37 35.96 186.73 43.31 C 192.01 42.25 198.35 42.48 202.03 46.98 C 205.47 51.44 204.18 57.44 202.05 62.17 C 204.81 59.47 205.62 55.59 206.31 51.94 C 206.79 52.18 207.76 52.64 208.24 52.87 C 225.75 65.70 239.62 83.60 247.17 103.99 C 255.03 124.59 256.48 147.56 251.48 169.02 C 267.07 188.61 271.92 216.44 263.15 239.97 C 264.80 231.02 266.64 221.90 265.49 212.77 C 264.32 196.55 257.34 180.70 245.71 169.27 C 236.76 160.67 225.14 154.76 212.81 153.09 C 206.92 151.95 200.89 152.55 194.93 152.29 C 194.49 150.84 194.05 149.39 193.61 147.95 C 199.81 146.64 206.44 142.72 207.63 135.98 C 204.45 137.04 201.21 138.09 197.82 138.05 C 201.91 135.24 206.21 131.44 205.92 125.98 C 202.61 127.32 198.94 129.32 195.36 127.61 C 192.67 126.97 191.59 124.24 190.95 121.85 C 198.09 117.83 204.89 111.47 205.88 102.92 C 206.40 100.46 204.90 97.83 205.60 95.52 C 209.05 91.98 212.55 88.20 214.07 83.38 C 215.71 78.81 215.37 73.77 213.75 69.24 C 208.87 70.19 200.95 69.65 200.49 63.30 C 198.51 65.36 195.86 66.49 193.09 67.03 C 197.89 62.91 200.46 55.67 197.14 49.86 C 195.26 45.72 190.68 44.23 186.56 43.43 C 185.11 35.10 180.51 25.68 171.57 23.60 C 174.84 26.95 178.57 30.05 180.34 34.55 C 183.92 42.87 182.68 53.64 176.21 60.25 C 173.20 63.53 168.45 60.50 165.76 58.26 C 164.95 50.32 161.81 42.61 156.10 36.91 C 150.17 31.04 142.84 25.15 134.01 25.48 C 132.39 25.73 129.78 25.18 129.18 27.23 C 139.34 26.79 150.78 33.84 151.27 44.75 C 145.33 44.15 139.50 46.18 134.91 49.90 C 136.39 46.81 138.27 43.65 137.85 40.07 C 137.76 33.82 132.28 29.53 127.11 27.04 C 129.90 21.57 136.87 21.15 142.04 23.01 C 151.72 26.37 158.92 34.63 163.49 43.52 C 165.83 47.72 166.11 52.52 165.96 57.22 C 176.69 49.47 177.28 31.78 167.60 23.08 C 167.98 29.19 167.42 35.44 164.72 41.03 C 162.37 37.85 160.10 34.57 157.14 31.91 C 159.18 28.94 161.26 25.73 161.41 22.01 C 161.85 15.02 156.11 8.67 149.40 7.42 L 149.45 7.08 Z" />
<path fill="#020202" d=" M 172.96 11.29 C 180.09 11.05 187.49 13.24 192.71 18.24 C 196.50 21.74 199.43 26.66 199.18 31.97 C 198.68 34.11 196.72 35.47 195.31 37.02 C 197.31 27.96 192.02 18.20 183.79 14.22 C 180.51 12.18 176.57 12.32 172.96 11.29 Z" />
<path fill="#020202" d=" M 83.19 15.28 C 87.74 14.06 92.48 13.37 97.14 14.44 C 94.63 15.85 91.86 16.80 89.54 18.54 C 87.35 20.22 86.20 22.81 84.76 25.09 C 83.07 22.09 82.95 18.63 83.19 15.28 Z" />
<path fill="#020202" d=" M 70.48 39.82 C 68.63 30.94 72.98 20.39 81.73 16.96 C 80.92 23.95 84.52 30.95 90.51 34.56 C 95.34 37.77 101.49 37.57 106.94 36.34 C 100.93 40.20 92.73 41.39 86.40 37.61 C 82.65 35.71 79.79 32.17 78.85 28.07 C 78.61 25.61 78.85 23.13 78.85 20.66 C 73.91 27.98 72.97 38.40 78.17 45.84 C 80.70 49.93 84.83 52.49 88.96 54.72 C 85.25 54.48 81.42 53.91 78.30 51.73 C 75.02 49.92 73.26 46.51 70.99 43.69 C 70.81 48.47 72.42 53.70 76.52 56.50 C 80.43 58.97 85.28 58.24 89.42 56.80 C 85.98 66.06 72.41 69.49 64.91 63.07 C 62.63 61.27 61.10 58.75 59.89 56.15 C 65.11 61.19 72.82 64.22 79.96 61.75 C 74.20 60.96 68.78 56.19 69.21 50.02 C 68.66 46.46 71.71 43.36 70.48 39.82 Z" />
<path fill="#020202" d=" M 85.35 26.00 C 91.16 18.48 102.56 16.53 110.76 21.20 C 114.94 23.48 118.52 27.49 119.12 32.36 C 116.32 29.72 114.02 26.03 109.98 25.23 C 103.02 23.39 95.46 27.00 91.98 33.19 C 89.23 31.41 86.34 29.29 85.35 26.00 Z" />
<path fill="#020202" d=" M 106.93 44.05 C 111.22 37.38 121.22 37.50 127.23 41.77 C 130.56 43.86 132.65 47.31 133.99 50.92 C 130.17 46.47 125.31 42.05 118.99 42.45 C 114.71 41.69 111.13 45.61 106.93 44.05 Z" />
<path fill="#020202" d=" M 87.90 47.69 C 98.78 41.47 114.37 43.74 121.99 54.01 C 126.11 59.30 125.56 67.84 120.11 72.00 C 115.59 74.65 110.00 73.50 105.47 71.47 C 101.10 69.53 96.32 67.08 91.42 68.55 C 87.68 69.82 84.63 72.53 81.65 75.02 C 81.60 78.68 83.18 82.67 86.54 84.48 C 88.77 85.96 91.55 85.65 94.08 86.02 C 89.13 90.93 80.17 88.77 77.38 82.58 C 74.62 77.36 78.09 71.15 83.02 68.76 C 82.72 70.30 82.37 71.82 82.11 73.37 C 85.70 69.24 89.34 64.77 94.68 62.85 C 98.73 61.60 103.39 60.67 107.33 62.79 C 110.88 64.86 113.57 68.14 117.17 70.17 C 118.44 70.97 119.70 70.90 120.95 69.95 C 122.14 68.49 121.62 66.66 121.31 64.99 C 119.20 54.99 110.10 47.03 99.95 46.10 C 95.86 45.49 91.80 46.54 87.90 47.69 Z" />
<path fill="#020202" d=" M 204.87 43.87 C 216.63 50.70 226.51 60.43 235.02 70.95 C 257.21 99.07 265.39 137.77 256.14 172.39 C 254.96 171.01 253.39 169.38 254.15 167.41 C 258.09 148.56 257.35 128.72 251.70 110.29 C 244.43 86.03 228.71 64.51 207.99 49.99 C 205.66 48.82 205.37 46.14 204.87 43.87 Z" />
<path fill="#020202" d=" M 126.46 69.03 C 125.33 58.90 134.04 48.98 144.24 49.02 C 142.19 50.73 139.44 51.82 138.20 54.34 C 137.15 56.05 137.75 58.13 137.76 60.00 C 135.01 61.33 131.88 62.39 130.00 64.95 C 128.83 66.32 128.09 68.12 126.46 69.03 Z" />
<path fill="#020202" d=" M 48.35 67.02 C 48.08 60.41 51.72 53.57 57.85 50.79 C 52.48 57.53 50.43 67.07 53.70 75.18 C 55.06 78.91 57.87 81.78 59.91 85.12 C 53.21 81.71 48.37 74.63 48.35 67.02 Z" />
<path fill="#020202" d=" M 145.92 54.14 C 154.55 51.34 164.64 58.81 163.87 67.97 C 164.01 74.53 156.92 77.95 151.25 78.24 C 153.09 76.42 155.64 75.17 156.73 72.69 C 158.92 68.50 158.81 63.00 155.72 59.29 C 153.39 56.13 149.30 55.57 145.92 54.14 Z" />
<path fill="#020202" d=" M 129.44 68.36 C 131.70 63.16 138.31 59.85 143.67 62.24 C 149.40 64.26 152.81 70.64 151.89 76.57 C 150.50 75.71 150.00 74.08 149.16 72.78 C 147.11 69.02 143.15 66.60 139.00 65.86 C 135.59 65.39 132.49 67.16 129.44 68.36 Z" />
<path fill="#020202" d=" M 179.87 67.89 C 181.23 66.35 182.28 64.56 183.58 62.97 C 182.56 76.52 166.12 86.21 153.98 79.52 C 158.96 78.11 163.21 74.64 164.95 69.67 C 169.76 71.60 175.84 71.47 179.87 67.89 Z" />
<path fill="#020202" d=" M 70.83 78.01 C 70.78 71.59 76.89 66.15 83.25 66.71 C 79.68 69.29 75.41 71.88 74.60 76.63 C 73.42 80.66 75.89 84.29 78.23 87.31 C 73.88 86.70 70.40 82.42 70.83 78.01 Z" />
<path fill="#020202" d=" M 137.42 68.50 C 142.83 66.40 148.94 70.57 149.50 76.23 C 145.38 73.88 140.05 71.45 135.71 74.77 C 139.06 75.15 142.92 74.82 145.38 77.61 C 148.88 80.03 147.86 84.94 146.06 88.11 C 144.29 90.82 141.02 91.80 137.96 92.02 C 139.68 89.75 142.12 87.74 142.55 84.77 C 143.14 81.94 142.18 79.04 140.40 76.83 C 140.50 80.67 140.37 84.80 138.04 88.05 C 133.94 94.32 123.97 94.41 118.94 89.30 C 121.85 89.87 124.90 91.25 127.81 89.95 C 132.27 88.00 134.06 82.39 133.00 77.88 C 131.97 79.30 131.00 80.77 129.97 82.20 C 129.89 76.80 131.93 70.56 137.42 68.50 Z" />
<path fill="#020202" d=" M 183.23 83.77 C 180.18 77.76 184.01 70.08 190.07 67.80 C 187.81 70.52 184.77 73.18 184.69 77.00 C 184.14 82.67 188.69 87.64 194.02 88.86 C 189.83 89.40 185.10 87.80 183.23 83.77 Z" />
<path fill="#020202" d=" M 191.83 67.75 C 193.91 69.77 195.84 72.16 198.69 73.13 C 203.54 74.86 208.84 73.75 213.30 71.46 C 211.88 77.34 204.61 79.63 199.38 77.40 C 195.32 75.93 192.13 72.14 191.83 67.75 Z" />
<path fill="#020202" d=" M 127.26 70.87 C 131.01 76.07 126.87 85.35 120.08 84.65 C 117.77 84.72 115.79 83.37 113.86 82.29 C 116.97 82.21 120.50 83.20 123.22 81.21 C 126.33 78.71 126.69 74.52 127.26 70.87 Z" />
<path fill="#020202" d=" M 40.34 83.32 C 42.32 80.06 44.12 76.62 46.90 73.95 C 47.29 75.26 47.66 76.58 48.02 77.91 C 34.90 96.54 27.66 119.22 27.51 142.01 C 27.15 161.66 32.01 181.36 41.42 198.62 C 43.40 202.41 47.06 205.95 45.31 210.59 C 42.97 208.52 41.55 205.68 39.90 203.08 C 27.14 181.19 21.44 155.10 24.52 129.91 C 26.42 113.49 31.89 97.52 40.34 83.32 Z" />
<path fill="#020202" d=" M 206.03 85.02 C 208.92 82.77 210.20 79.25 212.29 76.36 C 213.18 83.64 208.62 90.70 202.35 94.13 C 205.90 104.09 200.61 116.57 190.73 120.45 C 193.00 117.13 195.86 114.14 197.24 110.29 C 199.23 105.75 199.41 100.72 199.06 95.86 C 193.50 97.18 187.38 97.53 182.10 95.00 C 178.13 93.41 175.41 89.95 172.94 86.63 C 169.65 94.09 157.43 96.58 152.43 89.54 C 150.77 86.90 150.49 83.55 150.81 80.51 C 152.90 82.98 153.43 86.81 156.71 88.19 C 162.43 90.64 170.06 87.90 172.68 82.19 C 173.35 86.76 178.01 89.26 181.88 90.93 C 190.21 93.61 199.79 91.13 206.03 85.02 Z" />
<path fill="#020202" d=" M 49.16 80.09 C 51.75 83.12 54.73 85.77 57.93 88.13 C 55.78 90.40 52.99 92.65 52.72 96.01 C 52.23 99.22 54.60 102.21 57.29 103.67 C 63.42 107.44 71.26 107.22 77.80 104.65 C 80.36 103.36 81.76 100.64 84.06 99.03 C 88.03 101.41 91.45 105.05 93.94 109.00 C 95.65 111.36 95.38 114.34 95.03 117.07 C 93.57 116.43 92.14 115.72 90.64 115.19 C 88.89 120.82 87.28 126.98 89.29 132.77 C 90.98 137.60 93.19 142.23 95.46 146.81 C 96.49 148.66 97.27 150.80 99.14 152.00 C 97.96 149.86 96.08 148.16 95.50 145.70 C 98.80 146.31 102.15 146.24 105.48 146.49 C 109.58 147.34 113.71 147.99 117.81 148.85 C 114.28 154.46 107.76 158.35 101.00 157.40 C 101.86 162.63 101.95 170.27 108.00 172.20 C 115.15 173.29 121.89 170.11 128.23 167.25 C 133.46 164.53 138.96 162.23 143.79 158.80 C 144.54 149.75 150.61 141.47 158.97 137.97 C 164.99 135.54 170.79 132.47 177.07 130.76 C 176.86 133.62 173.52 134.04 171.74 135.72 C 176.97 136.51 181.77 138.76 186.02 141.87 C 184.29 139.20 182.51 136.32 182.65 133.00 C 182.46 128.67 185.08 124.95 188.04 122.07 C 189.02 122.32 190.01 122.55 191.01 122.77 C 191.52 125.49 192.39 128.72 195.18 129.94 C 198.10 131.30 201.19 129.65 204.08 129.06 C 201.85 132.54 198.23 137.07 193.54 135.41 C 189.81 133.08 189.87 128.38 188.25 124.80 C 187.59 130.06 189.74 135.84 194.69 138.28 C 197.81 140.51 201.74 139.73 205.26 139.23 C 202.75 142.43 199.04 144.71 194.98 145.21 C 192.14 145.60 189.61 143.98 187.07 142.97 C 189.67 146.19 192.27 149.55 193.44 153.60 C 208.49 153.25 223.29 159.52 234.04 169.96 C 247.14 182.63 254.74 200.77 254.85 218.97 C 255.69 240.98 246.78 262.84 231.92 278.92 C 226.19 285.00 219.98 290.69 213.00 295.30 C 210.31 294.74 207.60 294.29 204.91 293.79 C 207.60 291.15 210.79 289.11 213.65 286.68 C 230.88 272.46 243.74 252.17 246.43 229.74 C 248.13 213.98 245.59 197.40 237.27 183.72 C 229.83 171.14 218.17 160.38 203.95 156.22 C 213.86 160.50 222.45 167.62 228.55 176.52 C 239.63 192.33 242.69 212.93 238.54 231.61 C 233.02 256.86 214.29 277.89 191.50 289.34 C 189.54 290.30 187.51 288.81 185.57 288.45 C 176.09 285.77 166.67 282.79 157.11 280.41 C 165.89 276.01 174.60 271.22 181.97 264.65 C 168.67 261.30 155.05 259.22 141.62 256.37 C 125.02 252.54 107.82 251.50 90.86 252.79 C 77.06 254.04 63.27 257.40 51.05 264.07 C 45.72 267.00 41.59 271.54 36.98 275.41 C 42.06 263.09 54.57 255.82 66.65 251.72 C 89.06 244.46 113.36 245.80 136.13 250.68 C 146.56 252.82 156.44 256.86 166.79 259.29 C 171.89 260.55 176.88 262.26 182.03 263.39 C 183.34 264.07 185.72 263.01 184.65 261.33 C 168.87 256.66 153.48 250.75 137.57 246.49 C 116.59 241.26 94.39 239.46 73.13 244.19 C 62.42 247.11 51.38 251.35 43.86 259.88 C 39.82 264.34 36.58 269.94 36.08 276.04 C 35.65 275.91 34.78 275.65 34.34 275.52 C 31.94 267.14 35.02 258.03 40.65 251.66 C 46.17 245.58 53.35 241.20 60.91 238.13 C 75.27 233.03 90.85 232.20 105.93 233.55 C 101.12 232.00 95.98 232.14 90.98 231.89 C 71.25 231.06 50.07 234.72 34.70 247.98 C 30.01 241.38 30.29 232.21 34.45 225.42 C 37.22 220.07 42.05 216.34 46.74 212.78 C 47.07 210.23 47.77 207.70 47.78 205.13 C 46.46 202.26 44.52 199.73 43.07 196.93 C 30.56 173.78 26.53 146.12 32.10 120.39 C 34.92 105.96 40.94 92.25 49.16 80.09 Z" />
<path fill="#020202" d=" M 80.43 87.97 C 83.73 90.23 84.25 94.76 83.27 98.37 C 81.74 101.15 79.03 103.42 75.87 104.03 C 69.64 105.49 62.59 104.55 57.51 100.49 C 53.86 97.60 54.05 90.85 58.60 88.93 C 58.63 91.69 57.31 95.16 59.69 97.33 C 62.79 100.57 67.83 100.52 71.97 100.04 C 75.91 99.33 80.44 98.01 82.42 94.18 C 77.12 97.95 67.90 98.06 65.21 91.09 C 65.48 90.52 66.02 89.37 66.29 88.80 C 69.47 91.51 73.32 94.77 77.83 93.17 C 80.18 92.49 80.14 89.94 80.43 87.97 Z" />
<path fill="#020202" d=" M 161.47 95.48 C 165.24 94.83 168.46 92.73 171.27 90.23 C 170.50 97.08 173.80 103.51 178.95 107.83 C 175.58 107.83 172.14 107.46 169.14 105.82 C 165.59 104.40 163.98 100.71 161.44 98.13 C 160.84 102.28 163.62 105.87 166.49 108.51 C 171.88 113.00 179.93 114.81 186.34 111.45 C 189.96 109.89 192.29 106.65 194.98 103.94 C 194.00 107.51 192.45 111.09 189.58 113.56 C 183.12 119.48 172.18 119.08 165.90 113.10 C 161.04 108.87 159.14 101.49 161.47 95.48 Z" />
<path fill="#020202" d=" M 117.20 95.96 C 125.39 94.62 133.76 94.26 142.05 94.58 C 139.62 95.84 136.80 95.56 134.19 96.14 C 128.20 97.25 122.26 98.69 116.42 100.42 C 112.96 103.30 109.60 106.69 105.01 107.65 C 103.05 107.08 101.84 105.13 100.34 103.85 C 105.90 101.10 111.55 98.50 117.20 95.96 Z" />
<path fill="#020202" d=" M 147.97 95.45 C 150.36 93.81 153.98 93.75 156.11 95.88 C 157.74 98.03 157.91 100.96 157.27 103.51 C 155.68 109.09 152.03 114.10 146.88 116.89 C 150.36 112.01 154.07 106.30 153.15 100.03 C 152.79 97.34 150.25 96.15 147.97 95.45 Z" />
<path fill="#020202" d=" M 128.59 102.55 C 132.76 100.56 136.66 97.85 141.23 96.84 C 135.52 103.59 128.88 109.67 121.33 114.29 C 118.27 115.87 113.93 117.57 111.00 114.92 C 109.16 112.84 106.22 113.47 103.79 112.87 C 108.68 110.72 114.16 109.77 119.51 110.12 C 116.03 107.71 111.77 109.57 107.95 109.79 C 108.10 109.45 108.40 108.76 108.55 108.42 C 113.79 104.54 119.48 100.94 126.05 99.96 C 122.49 103.11 118.14 105.11 114.08 107.51 C 116.97 107.05 119.90 107.20 122.77 107.66 C 122.26 107.40 121.22 106.88 120.70 106.62 C 123.06 104.80 125.99 103.97 128.59 102.55 Z" />
<path fill="#fefefe" d=" M 83.10 104.05 C 86.87 105.47 91.01 107.18 92.95 110.98 C 88.39 111.21 85.97 106.86 83.10 104.05 Z" />
<path fill="#020202" d=" M 156.28 108.79 C 158.21 108.13 160.25 108.18 162.14 109.01 C 161.95 114.84 158.45 119.72 155.35 124.40 C 152.27 128.55 148.88 132.52 144.92 135.87 C 148.41 130.64 152.71 125.87 154.95 119.90 C 156.31 116.39 158.03 112.50 156.28 108.79 Z" />
<path fill="#fefefe" d=" M 79.66 112.57 C 82.64 113.91 85.67 112.95 88.61 112.08 C 88.54 112.64 88.40 113.75 88.33 114.31 C 85.35 115.37 81.67 115.40 79.66 112.57 Z" />
<path fill="#fefefe" d=" M 92.03 112.44 C 93.41 112.04 93.91 112.53 93.54 113.91 C 92.13 114.33 91.63 113.84 92.03 112.44 Z" />
<path fill="#fefefe" d=" M 110.87 112.45 C 112.27 112.13 112.79 112.67 112.45 114.04 C 111.01 114.37 110.48 113.84 110.87 112.45 Z" />
<path fill="#fefefe" d=" M 116.53 112.14 C 117.41 111.39 119.75 111.06 119.89 112.64 C 119.58 114.48 115.81 114.00 116.53 112.14 Z" />
<path fill="#020202" d=" M 163.14 126.02 C 162.39 122.34 165.18 118.28 169.00 118.04 C 171.83 117.43 174.27 119.35 176.09 121.28 C 176.35 120.64 176.88 119.34 177.14 118.69 C 180.74 119.39 184.41 119.40 188.06 119.24 C 184.28 122.04 181.22 126.10 181.22 131.00 C 179.47 129.78 178.37 127.95 177.49 126.06 C 176.07 127.85 174.97 130.13 172.75 131.06 C 169.01 132.77 163.16 130.62 163.14 126.02 Z" />
<path fill="#fefefe" d=" M 167.14 123.00 C 167.06 121.03 169.49 121.60 170.73 121.22 C 170.80 122.44 170.84 123.66 170.88 124.88 C 169.49 125.02 166.66 125.21 167.14 123.00 Z" />
<path fill="#020202" d=" M 98.19 136.85 C 98.08 134.15 101.54 135.02 103.29 134.74 C 102.59 137.03 100.05 136.58 98.19 136.85 Z" />
<path fill="#020202" d=" M 91.72 136.89 C 94.22 138.10 98.58 137.97 99.15 141.25 C 96.43 140.30 93.65 139.12 91.72 136.89 Z" />
<path fill="#fefefe" d=" M 146.72 151.69 C 151.72 140.77 165.68 134.00 177.02 138.84 C 173.64 138.73 169.95 136.67 166.86 138.85 C 169.94 141.12 175.65 141.02 176.28 145.61 C 171.59 144.23 167.34 141.64 162.82 139.77 C 161.43 138.82 160.04 140.22 158.85 140.80 C 151.78 145.01 146.20 152.56 146.16 161.02 C 146.00 164.54 147.31 167.86 147.93 171.27 C 146.31 169.70 146.38 167.22 144.94 165.53 C 145.29 171.74 149.29 177.19 153.88 181.10 C 157.49 184.28 162.28 185.20 166.72 186.60 C 166.57 184.74 166.47 182.88 166.55 181.02 C 167.33 179.52 168.73 178.51 169.92 177.37 C 164.36 176.91 158.64 174.22 155.85 169.20 C 152.40 163.69 152.69 155.95 157.00 150.99 C 160.89 146.28 167.24 144.16 173.22 145.01 C 173.25 145.47 173.29 146.39 173.31 146.85 C 170.29 147.99 167.03 148.57 164.22 150.20 C 164.15 150.72 164.02 151.76 163.95 152.28 C 168.20 150.76 172.32 148.92 176.10 146.44 C 182.74 148.67 186.97 156.78 185.70 163.68 C 184.82 169.09 180.75 173.60 175.81 175.76 C 173.35 176.49 172.49 179.13 170.44 180.43 C 169.65 181.27 168.15 181.66 167.98 182.93 C 168.97 184.32 169.72 187.18 171.98 186.25 C 176.97 185.48 181.40 183.00 185.98 181.05 C 188.93 177.48 192.09 173.84 193.38 169.29 C 194.99 164.66 194.73 159.70 194.02 154.93 C 199.54 158.86 202.84 165.00 206.10 170.78 C 212.59 183.93 215.13 199.35 212.16 213.76 C 202.70 208.39 193.82 201.08 188.81 191.24 C 187.26 188.57 187.57 185.16 185.78 182.67 C 184.60 187.37 184.10 192.22 183.52 197.03 C 188.72 204.56 198.16 207.47 205.63 212.22 C 200.45 211.69 195.29 211.04 190.13 210.38 C 197.35 212.50 204.82 213.74 211.81 216.60 C 211.83 221.13 210.19 225.43 208.54 229.58 C 204.98 238.25 200.28 246.55 193.85 253.43 C 184.40 249.68 176.10 243.64 167.20 238.79 C 152.21 230.71 137.84 221.31 121.80 215.34 C 111.09 211.28 99.90 208.33 88.47 207.29 C 78.87 206.32 68.96 205.82 59.56 208.46 C 56.05 209.28 52.82 210.93 49.36 211.94 C 50.11 202.85 53.74 193.80 60.44 187.47 C 68.60 178.85 81.72 176.89 92.91 179.34 C 100.91 180.88 108.07 184.93 114.97 189.06 C 112.75 186.18 109.39 184.59 106.83 182.08 C 119.12 181.63 130.70 175.89 139.64 167.64 C 141.22 166.21 142.72 164.48 144.93 164.10 C 145.03 159.93 144.67 155.49 146.72 151.69 Z" />
<path fill="#fefefe" d=" M 101.86 153.65 C 104.52 151.82 107.86 151.51 110.98 151.12 C 109.77 154.81 104.80 153.28 101.86 153.65 Z" />
<path fill="#020202" d=" M 163.83 152.73 L 164.88 152.59 C 168.16 154.51 172.21 155.84 174.33 159.21 C 170.81 157.47 166.56 156.60 163.74 153.81 L 163.83 152.73 Z" />
<path fill="#020202" d=" M 195.50 157.01 C 197.86 158.10 198.96 160.66 200.39 162.69 C 209.30 176.55 212.45 193.79 209.73 209.98 C 198.33 204.31 186.98 193.71 187.52 179.99 C 193.53 174.00 196.52 165.46 195.50 157.01 Z" />
<path fill="#020202" d=" M 165.14 168.80 C 163.95 163.07 171.45 163.17 174.52 160.23 C 174.53 160.84 174.56 162.05 174.57 162.66 C 172.17 164.95 168.61 165.45 165.78 167.11 C 168.23 169.86 173.14 170.98 173.14 175.33 C 170.34 173.40 166.92 171.80 165.14 168.80 Z" />
<path fill="#020202" d=" M 169.50 186.96 C 170.92 186.58 171.45 187.10 171.09 188.50 C 169.67 188.84 169.14 188.33 169.50 186.96 Z" />
<path fill="#020202" d=" M 171.03 204.06 C 166.20 201.01 167.52 193.13 171.81 190.08 C 171.96 193.15 169.97 195.47 168.54 197.96 C 169.38 199.99 170.41 201.94 171.03 204.06 Z" />
<path fill="#020202" d=" M 132.93 196.27 C 141.36 199.05 150.26 199.70 159.02 200.59 C 161.67 200.69 163.93 202.18 165.99 203.71 C 154.84 202.31 142.85 202.19 132.93 196.27 Z" />
<path fill="#020202" d=" M 171.05 207.10 C 173.64 207.67 176.24 208.28 178.70 209.31 C 180.05 210.45 180.23 212.42 180.82 214.00 C 177.28 212.13 174.29 209.42 171.05 207.10 Z" />
</svg>
